<?xml version="1.0" standalone="no"?>
<!DOCTYPE svg PUBLIC "-//W3C//DTD SVG 20010904//EN"
 "http://www.w3.org/TR/2001/REC-SVG-20010904/DTD/svg10.dtd">
<svg version="1.0" xmlns="http://www.w3.org/2000/svg"
 width="500.000000pt" height="500.000000pt" viewBox="0 0 500.000000 500.000000"
 preserveAspectRatio="xMidYMid meet">
<metadata>
Created by potrace 1.11, written by Peter Selinger 2001-2013
</metadata>
<g transform="translate(0.000000,500.000000) scale(0.100000,-0.100000)"
fill="#000000" stroke="none">
<path d="M2329 4976 c-2 -2 -41 -6 -86 -10 -45 -3 -88 -8 -95 -11 -7 -2 -31
-6 -53 -9 -69 -8 -152 -26 -263 -57 -419 -117 -791 -335 -1097 -643 -405 -408
-647 -914 -712 -1491 -10 -89 -10 -451 0 -530 77 -594 311 -1079 717 -1485
280 -280 584 -470 953 -596 96 -33 256 -76 327 -89 19 -3 44 -7 55 -9 11 -2
42 -7 70 -11 27 -4 61 -9 75 -12 50 -8 437 -11 500 -3 36 5 88 11 115 14 104
10 280 51 424 97 385 124 709 324 1002 620 316 318 534 704 645 1142 14 56 27
113 29 127 3 22 11 68 21 125 13 64 19 205 18 390 -1 164 -6 238 -23 340 -78
466 -259 863 -557 1225 -38 46 -239 246 -289 289 -269 227 -617 411 -947 501
-218 59 -367 80 -609 85 -119 3 -218 3 -220 1z"/>
</g>
</svg>
